<?xml version="1.0" encoding="UTF-8" standalone="no"?>
<!-- Created with Inkscape (http://www.inkscape.org/) -->

<svg
   width="210mm"
   height="297mm"
   viewBox="0 0 210 297"
   version="1.1"
   id="svg5"
   inkscape:version="1.2 (dc2aeda, 2022-05-15)"
   sodipodi:docname="3r3.svg"
   xmlns:inkscape="http://www.inkscape.org/namespaces/inkscape"
   xmlns:sodipodi="http://sodipodi.sourceforge.net/DTD/sodipodi-0.dtd"
   xmlns:xlink="http://www.w3.org/1999/xlink"
   xmlns="http://www.w3.org/2000/svg"
   xmlns:svg="http://www.w3.org/2000/svg">
  <sodipodi:namedview
     id="namedview7"
     pagecolor="#ffffff"
     bordercolor="#000000"
     borderopacity="0.25"
     inkscape:showpageshadow="2"
     inkscape:pageopacity="0.0"
     inkscape:pagecheckerboard="0"
     inkscape:deskcolor="#d1d1d1"
     inkscape:document-units="mm"
     showgrid="false"
     showguides="false"
     inkscape:zoom="0.50805087"
     inkscape:cx="186.005"
     inkscape:cy="548.17345"
     inkscape:window-width="1280"
     inkscape:window-height="715"
     inkscape:window-x="0"
     inkscape:window-y="23"
     inkscape:window-maximized="0"
     inkscape:current-layer="layer2" />
  <defs
     id="defs2">
    <linearGradient
       inkscape:collect="always"
       id="linearGradient61027">
      <stop
         style="stop-color:#30e85a;stop-opacity:1;"
         offset="0"
         id="stop61023" />
      <stop
         style="stop-color:#42c409;stop-opacity:0;"
         offset="1"
         id="stop61025" />
    </linearGradient>
    <linearGradient
       inkscape:collect="always"
       id="linearGradient61007">
      <stop
         style="stop-color:#589bff;stop-opacity:1;"
         offset="0"
         id="stop61003" />
      <stop
         style="stop-color:#2040fa;stop-opacity:0.18238993;"
         offset="0.70096463"
         id="stop61005" />
    </linearGradient>
    <linearGradient
       inkscape:collect="always"
       id="linearGradient60991">
      <stop
         style="stop-color:#ff2a2a;stop-opacity:0;"
         offset="0"
         id="stop60989" />
      <stop
         style="stop-color:#ff0505;stop-opacity:1;"
         offset="0.49356917"
         id="stop61001" />
      <stop
         style="stop-color:#8a0000;stop-opacity:1;"
         offset="1"
         id="stop60987" />
    </linearGradient>
    <linearGradient
       inkscape:collect="always"
       id="linearGradient42692">
      <stop
         style="stop-color:#ffd42a;stop-opacity:0;"
         offset="0"
         id="stop42690" />
      <stop
         style="stop-color:#ede923;stop-opacity:1;"
         offset="0.12540191"
         id="stop48536" />
      <stop
         style="stop-color:#ff6415;stop-opacity:1;"
         offset="1"
         id="stop42688" />
    </linearGradient>
    <linearGradient
       id="linearGradient12458"
       inkscape:swatch="solid">
      <stop
         style="stop-color:#000000;stop-opacity:1;"
         offset="0"
         id="stop12456" />
    </linearGradient>
    <linearGradient
       inkscape:collect="always"
       xlink:href="#linearGradient42692"
       id="linearGradient42694"
       x1="105.04017"
       y1="27.778088"
       x2="166.071"
       y2="27.778088"
       gradientUnits="userSpaceOnUse"
       spreadMethod="pad"
       gradientTransform="translate(2.0038417,0.40076835)" />
    <linearGradient
       inkscape:collect="always"
       xlink:href="#linearGradient60991"
       id="linearGradient60993"
       x1="154.87168"
       y1="34.922853"
       x2="207.78422"
       y2="34.922853"
       gradientUnits="userSpaceOnUse"
       gradientTransform="translate(2.0038417,0.40076835)" />
    <linearGradient
       inkscape:collect="always"
       xlink:href="#linearGradient61007"
       id="linearGradient61009"
       x1="143.66772"
       y1="80.694632"
       x2="204.69869"
       y2="80.694632"
       gradientUnits="userSpaceOnUse"
       gradientTransform="translate(2.0038417,0.40076835)" />
    <linearGradient
       inkscape:collect="always"
       xlink:href="#linearGradient42692"
       id="linearGradient67028"
       gradientUnits="userSpaceOnUse"
       x1="105.04017"
       y1="27.778088"
       x2="166.071"
       y2="27.778088"
       spreadMethod="pad"
       gradientTransform="translate(-101.16666,0.26801372)" />
    <linearGradient
       inkscape:collect="always"
       xlink:href="#linearGradient61027"
       id="linearGradient67030"
       gradientUnits="userSpaceOnUse"
       x1="101.95502"
       y1="73.550294"
       x2="154.8679"
       y2="73.550294"
       gradientTransform="translate(-101.16666,0.26801372)" />
    <linearGradient
       inkscape:collect="always"
       xlink:href="#linearGradient60991"
       id="linearGradient67034"
       gradientUnits="userSpaceOnUse"
       x1="154.87168"
       y1="34.922853"
       x2="207.78422"
       y2="34.922853"
       gradientTransform="translate(-101.16666,0.26801372)" />
    <linearGradient
       inkscape:collect="always"
       xlink:href="#linearGradient61027"
       id="linearGradient67073"
       gradientUnits="userSpaceOnUse"
       x1="101.95502"
       y1="73.550294"
       x2="154.8679"
       y2="73.550294"
       gradientTransform="translate(1.8308036,103.26548)" />
    <linearGradient
       inkscape:collect="always"
       xlink:href="#linearGradient61007"
       id="linearGradient67075"
       gradientUnits="userSpaceOnUse"
       x1="143.66772"
       y1="80.694632"
       x2="204.69869"
       y2="80.694632"
       gradientTransform="translate(1.8308036,103.26548)" />
    <linearGradient
       inkscape:collect="always"
       xlink:href="#linearGradient60991"
       id="linearGradient67077"
       gradientUnits="userSpaceOnUse"
       x1="154.87168"
       y1="34.922853"
       x2="207.78422"
       y2="34.922853"
       gradientTransform="translate(1.8308036,103.26548)" />
    <linearGradient
       inkscape:collect="always"
       xlink:href="#linearGradient42692"
       id="linearGradient67114"
       gradientUnits="userSpaceOnUse"
       x1="105.04017"
       y1="27.778088"
       x2="166.071"
       y2="27.778088"
       spreadMethod="pad"
       gradientTransform="translate(-101.56743,103.39388)" />
    <linearGradient
       inkscape:collect="always"
       xlink:href="#linearGradient61027"
       id="linearGradient67116"
       gradientUnits="userSpaceOnUse"
       x1="101.95502"
       y1="73.550294"
       x2="154.8679"
       y2="73.550294"
       gradientTransform="translate(-101.56743,103.39388)" />
    <linearGradient
       inkscape:collect="always"
       xlink:href="#linearGradient61007"
       id="linearGradient67118"
       gradientUnits="userSpaceOnUse"
       x1="143.66772"
       y1="80.694632"
       x2="204.69869"
       y2="80.694632"
       gradientTransform="translate(-101.56743,103.39388)" />
  </defs>
  <g
     inkscape:groupmode="layer"
     id="layer2"
     inkscape:label="Background"
     style="fill:#1f2937;fill-opacity:1">
    <rect
       style="fill:#1f2937;stroke-width:18.5208;fill-opacity:1"
       id="rect1620"
       width="210.3956"
       height="296.84528"
       x="0"
       y="0" />
  </g>
  <g
     inkscape:groupmode="layer"
     id="layer3"
     inkscape:label="Texts">
    <circle
       style="fill:none;stroke-width:18.5208"
       id="path418"
       cx="-21.358843"
       cy="-76.577827"
       r="21.352028"
       transform="rotate(151.27051)"
       inkscape:transform-center-x="-0.52989949"
       inkscape:transform-center-y="0.56720219" />
    <text
       xml:space="preserve"
       style="font-size:17.4223px;font-family:Phosphate;-inkscape-font-specification:Phosphate;fill:#ffe6d5;stroke-width:18.5208"
       id="text476"
       inkscape:transform-center-x="9.7487077"
       inkscape:transform-center-y="-6.8315671"
       transform="rotate(-12.330374,55.008685,56.317149)"><textPath
         xlink:href="#path418"
         id="textPath555"><tspan
           id="tspan474"
           style="stroke-width:18.5208">Reduce</tspan></textPath></text>
    <circle
       style="fill:none;stroke-width:18.5208"
       id="path418-6"
       cx="-86.878227"
       cy="139.0213"
       r="21.352028"
       transform="rotate(-101.5799)"
       inkscape:transform-center-x="1.3038087"
       inkscape:transform-center-y="1.2377084" />
    <text
       xml:space="preserve"
       style="font-size:17.4223px;font-family:Phosphate;-inkscape-font-specification:Phosphate;fill:#ffe6d5;stroke-width:18.5208"
       id="text476-2"
       inkscape:transform-center-x="-13.444181"
       inkscape:transform-center-y="-11.351022"><textPath
         xlink:href="#path418-6"
         id="textPath555-7"><tspan
           id="tspan474-0"
           style="stroke-width:18.5208">ReUSE</tspan></textPath></text>
    <circle
       style="fill:none;stroke-width:18.5208"
       id="path418-3"
       cx="132.73969"
       cy="95.66069"
       r="21.352028"
       transform="rotate(34.714872)"
       inkscape:transform-center-x="-0.27046008"
       inkscape:transform-center-y="-0.72757335" />
    <text
       xml:space="preserve"
       style="font-size:17.4223px;font-family:Phosphate;-inkscape-font-specification:Phosphate;fill:#ffe6d5;stroke-width:18.5208"
       id="text476-9"
       inkscape:transform-center-x="1.9640567"
       inkscape:transform-center-y="12.179"><textPath
         xlink:href="#path418-3"
         id="textPath555-9"><tspan
           id="tspan474-9"
           style="stroke-width:18.5208">ReStore</tspan></textPath></text>
    <circle
       style="fill:none;stroke-width:18.5208"
       id="path418-1"
       cx="-100.01363"
       cy="195.30708"
       r="21.352028"
       transform="rotate(-71.754493)"
       inkscape:transform-center-x="-0.342374"
       inkscape:transform-center-y="-0.38305422" />
    <text
       xml:space="preserve"
       style="font-size:17.4223px;font-family:Phosphate;-inkscape-font-specification:Phosphate;fill:#ffe6d5;stroke-width:18.5208"
       id="text476-7"
       inkscape:transform-center-x="-5.4301079"
       inkscape:transform-center-y="1.1279328"><textPath
         xlink:href="#path418-1"
         id="textPath555-2"><tspan
           id="tspan474-3"
           style="stroke-width:18.5208">Renovate</tspan></textPath></text>
  </g>
  <g
     inkscape:label="3r3Logo"
     inkscape:groupmode="layer"
     id="layer1"
     style="display:inline">
    <path
       id="path26339"
       style="color:#000000;opacity:1;fill:url(#linearGradient42694);fill-opacity:1;stroke-width:0.999993;-inkscape-stroke:none"
       inkscape:transform-center-x="19.314583"
       inkscape:transform-center-y="-26.458333"
       d="m 157.04812,1.7226516 c 0,0 -0.0131,22.0009174 0,22.0529174 l 11.02672,-11.026718 z m -0.006,2.9124837 c -26.38447,5.41e-4 -48.1349,20.6682847 -49.88223,46.6266157 l 7.82536,-7.82588 8.30854,8.30854 c 1.45165,-17.43179 15.92116,-30.981053 33.74833,-30.981578 z M 107.04414,54.464141 c -1e-5,0.001 0,0.003 0,0.004 h 15.9551 c 0,0.0558 0.002,0.11117 0.002,0.16692 h 0.17053 v -10e-4 c 0,-0.0568 0.002,-0.11323 0.002,-0.17001 -3.63216,0.005 -12.25098,0.002 -16.12976,0 z" />
    <path
       id="path33912"
       style="color:#000000;opacity:1;fill:url(#linearGradient61009);fill-opacity:1;stroke-width:0.999993;-inkscape-stroke:none"
       inkscape:transform-center-x="-19.314588"
       inkscape:transform-center-y="26.458336"
       d="m 190.57476,54.639321 v 10e-4 c 0,0.057 -0.002,0.11358 -0.002,0.17054 1.84487,-0.003 4.11618,-0.005 8.20829,-0.004 3.96302,0.001 6.01286,0.002 7.92148,0.003 0,-10e-4 -1e-5,-0.003 0,-0.004 h -15.95466 c 0,-0.0558 -0.002,-0.11116 -0.002,-0.16691 z m -0.12196,2.89026 c -1.45141,17.43203 -15.92099,30.98156 -33.74833,30.98209 v 16.127699 c 26.38431,-5.4e-4 48.13518,-20.667999 49.88275,-46.626099 l -7.82536,7.82537 z m -33.75453,27.96935 -11.02671,11.026717 11.02671,11.026202 c 0,0 0.0131,-22.000919 0,-22.052919 z" />
    <path
       id="path33914"
       style="color:#000000;opacity:1;fill:url(#linearGradient60993);fill-opacity:1;stroke-width:0.999993;-inkscape-stroke:none"
       inkscape:transform-center-x="-26.458338"
       inkscape:transform-center-y="-19.314586"
       d="M 157.04192,4.8082513 V 20.762833 c -0.0556,1e-6 -0.11082,0.0018 -0.1664,0.0021 v 0.171049 h 0.001 c 0.0568,0 0.11323,0.0018 0.17001,0.0021 -0.005,-3.63161 -0.002,-12.2504347 0,-16.1297647 -0.002,-5e-6 -0.003,5e-6 -0.005,0 z m 3.20756,0.115238 7.82536,7.8253617 -8.30905,8.309054 c 17.43195,1.451487 30.98155,15.921046 30.98208,33.748326 h 16.1277 C 206.87504,28.422028 186.20743,6.6712113 160.24948,4.9234893 Z m 38.5315,49.8837817 c -5.50673,-0.002 -11.01984,-0.002 -11.04584,0.005 l 11.02672,11.02672 11.0262,-11.02672 c 0,0 -5.50036,-0.003 -11.00708,-0.005 z" />
    <path
       id="path26339-5"
       style="color:#000000;fill:url(#linearGradient67028);fill-opacity:1;stroke-width:0.999993"
       inkscape:transform-center-x="19.314583"
       inkscape:transform-center-y="-26.458333"
       d="m 53.877622,1.5898967 c 0,0 -0.0131,22.0009183 0,22.0529183 l 11.02672,-11.026718 z m -0.006,2.912484 C 27.487152,4.5029217 5.736722,25.170666 3.989392,51.128997 l 7.82536,-7.82588 8.30854,8.30854 c 1.45165,-17.43179 15.92116,-30.981053 33.74833,-30.981578 z M 3.873642,54.331387 c -10e-6,10e-4 0,0.003 0,0.004 h 15.9551 c 0,0.0558 0.002,0.11117 0.002,0.16692 h 0.17053 v -0.001 c 0,-0.0568 0.002,-0.11323 0.002,-0.17001 -3.63216,0.005 -12.25098,0.002 -16.12976,0 z" />
    <path
       id="path33910-5"
       style="color:#000000;fill:url(#linearGradient67030);fill-opacity:1;stroke-width:0.999993;-inkscape-stroke:none"
       inkscape:transform-center-x="26.458332"
       inkscape:transform-center-y="19.314586"
       d="m 11.814552,43.303117 -11.02619,11.02672 c 0,0 22.00091,0.0131 22.05291,0 z m -8.11371,11.0324 c 5.4e-4,26.3842 20.66763,48.135023 46.62558,49.882743 l -7.82536,-7.825366 8.30905,-8.309047 c -17.43195,-1.45149 -30.98104,-15.92104 -30.98157,-33.74833 z m 49.82797,33.86822 c 0.005,3.63161 0.003,12.250423 5.1e-4,16.129763 0.002,1e-5 0.003,0 0.005,0 V 88.378917 c 0.0558,0 0.11117,-0.002 0.16692,-0.002 v -0.17105 h -10e-4 c -0.0572,0 -0.11392,-0.002 -0.17105,-0.002 z" />
    <path
       id="path33914-2"
       style="color:#000000;fill:url(#linearGradient67034);fill-opacity:1;stroke-width:0.999993;-inkscape-stroke:none"
       inkscape:transform-center-x="-26.458338"
       inkscape:transform-center-y="-19.314586"
       d="M 53.871422,4.6754967 V 20.630079 c -0.0556,1e-6 -0.11082,0.0018 -0.1664,0.0021 v 0.171049 h 10e-4 c 0.0568,0 0.11323,0.0018 0.17001,0.0021 -0.005,-3.63161 -0.002,-12.2504353 0,-16.1297653 -0.002,-5e-6 -0.003,5e-6 -0.005,0 z m 3.20756,0.115238 7.82536,7.8253623 -8.30905,8.309054 c 17.43195,1.451487 30.98155,15.921046 30.98208,33.748326 H 103.70507 C 103.70454,28.289274 83.036932,6.5384567 57.078982,4.7907347 Z m 38.5315,49.8837823 c -5.50673,-0.002 -11.01984,-0.002 -11.04584,0.005 l 11.02672,11.02672 11.026198,-11.02672 c 0,0 -5.50036,-0.003 -11.007078,-0.005 z" />
    <path
       id="path33910-9"
       style="color:#000000;fill:url(#linearGradient67073);fill-opacity:1;stroke-width:0.999993;-inkscape-stroke:none"
       inkscape:transform-center-x="26.458332"
       inkscape:transform-center-y="19.314586"
       d="m 114.81201,146.30059 -11.02619,11.02672 c 0,0 22.00091,0.0131 22.05291,0 z m -8.11371,11.0324 c 5.4e-4,26.3842 20.66763,48.13501 46.62558,49.88273 l -7.82536,-7.82536 8.30905,-8.30904 C 136.37562,189.62983 122.82653,175.16028 122.826,157.33299 Z m 49.82797,33.86822 c 0.005,3.63161 0.003,12.25042 5.1e-4,16.12975 0.002,1e-5 0.003,0 0.005,0 v -15.95457 c 0.0558,0 0.11117,-0.002 0.16692,-0.002 v -0.17105 h -0.001 c -0.0572,0 -0.11392,-0.002 -0.17105,-0.002 z" />
    <path
       id="path33912-7"
       style="color:#000000;fill:url(#linearGradient67075);fill-opacity:1;stroke-width:0.999993;-inkscape-stroke:none"
       inkscape:transform-center-x="-19.314588"
       inkscape:transform-center-y="26.458336"
       d="m 190.40172,157.50404 v 0.001 c 0,0.057 -0.002,0.11358 -0.002,0.17054 1.84487,-0.003 4.11618,-0.005 8.20829,-0.004 3.96302,0.001 6.01286,0.002 7.92148,0.003 0,-0.001 -1e-5,-0.003 0,-0.004 h -15.95466 c 0,-0.0558 -0.002,-0.11116 -0.002,-0.16691 z m -0.12196,2.89026 c -1.45141,17.43203 -15.92099,30.98156 -33.74833,30.98209 v 16.12769 c 26.38431,-5.4e-4 48.13518,-20.66799 49.88275,-46.62609 l -7.82536,7.82537 z m -33.75453,27.96935 -11.02671,11.02671 11.02671,11.0262 c 0,0 0.0131,-22.00091 0,-22.05291 z" />
    <path
       id="path33914-3"
       style="color:#000000;fill:url(#linearGradient67077);fill-opacity:1;stroke-width:0.999993;-inkscape-stroke:none"
       inkscape:transform-center-x="-26.458338"
       inkscape:transform-center-y="-19.314586"
       d="m 156.86888,107.67297 v 15.95458 c -0.0556,0 -0.11082,0.002 -0.1664,0.002 v 0.17105 h 0.001 c 0.0568,0 0.11323,0.002 0.17001,0.002 -0.005,-3.63161 -0.002,-12.25044 0,-16.12977 -0.002,0 -0.003,10e-6 -0.005,0 z m 3.20756,0.11524 7.82536,7.82536 -8.30905,8.30905 c 17.43195,1.45149 30.98155,15.92105 30.98208,33.74833 h 16.1277 c -5.3e-4,-26.3842 -20.66814,-48.13502 -46.62609,-49.88274 z m 38.5315,49.88378 c -5.50673,-0.002 -11.01984,-0.002 -11.04584,0.005 l 11.02672,11.02672 11.0262,-11.02672 c 0,0 -5.50036,-0.003 -11.00708,-0.005 z" />
    <path
       id="path26339-8"
       style="color:#000000;fill:url(#linearGradient67114);fill-opacity:1;stroke-width:0.999993;-inkscape-stroke:none"
       inkscape:transform-center-x="19.314583"
       inkscape:transform-center-y="-26.458333"
       d="m 53.476848,104.71576 c 0,0 -0.0131,22.00092 0,22.05292 l 11.02672,-11.02672 z m -0.006,2.91249 c -26.38447,5.4e-4 -48.1348982,20.66828 -49.8822282,46.62662 l 7.8253602,-7.82588 8.308539,8.30854 c 1.451649,-17.43179 15.921159,-30.98106 33.748329,-30.98158 z M 3.4728698,157.45726 c -10e-6,0.001 0,0.003 0,0.004 H 19.427969 c 0,0.0558 0.002,0.11117 0.002,0.16692 h 0.17053 v -10e-4 c 0,-0.0568 0.002,-0.11323 0.002,-0.17001 -3.63216,0.005 -12.2509792,0.002 -16.1297592,0 z" />
    <path
       id="path33910-56"
       style="color:#000000;fill:url(#linearGradient67116);fill-opacity:1;stroke-width:0.999993;-inkscape-stroke:none"
       inkscape:transform-center-x="26.458332"
       inkscape:transform-center-y="19.314586"
       d="M 11.41378,146.42899 0.38758983,157.45571 c 0,0 22.00090817,0.0131 22.05290817,0 z m -8.1137102,11.0324 c 5.4e-4,26.3842 20.6676282,48.13501 46.6255782,49.88273 l -7.82536,-7.82536 8.30905,-8.30904 C 32.977388,189.75823 19.428299,175.28868 19.427769,157.46139 Z m 49.8279682,33.86822 c 0.005,3.63161 0.003,12.25042 5.1e-4,16.12975 0.002,1e-5 0.003,0 0.005,0 v -15.95457 c 0.0558,0 0.11117,-0.002 0.16692,-0.002 v -0.17105 h -0.001 c -0.0572,0 -0.11392,-0.002 -0.17105,-0.002 z" />
    <path
       id="path33912-79"
       style="color:#000000;fill:url(#linearGradient67118);fill-opacity:1;stroke-width:0.999993;-inkscape-stroke:none"
       inkscape:transform-center-x="-19.314588"
       inkscape:transform-center-y="26.458336"
       d="m 87.003488,157.63244 v 0.001 c 0,0.057 -0.002,0.11358 -0.002,0.17054 1.84487,-0.003 4.11618,-0.005 8.20829,-0.004 3.96302,0.001 6.012862,0.002 7.921482,0.003 0,-0.001 -1e-5,-0.003 0,-0.004 H 87.176598 c 0,-0.0558 -0.002,-0.11116 -0.002,-0.16691 z m -0.12196,2.89026 c -1.45141,17.43203 -15.92099,30.98156 -33.74833,30.98209 v 16.12769 c 26.38431,-5.4e-4 48.135182,-20.66799 49.882752,-46.62609 l -7.825362,7.82537 z m -33.75453,27.96935 -11.02671,11.02671 11.02671,11.0262 c 0,0 0.0131,-22.00091 0,-22.05291 z" />
    <text
       xml:space="preserve"
       style="font-size:3.175px;opacity:1;fill:#30e85a;fill-opacity:1;stroke:none;stroke-width:18.5208;stroke-dasharray:none;stroke-opacity:1"
       x="94.180565"
       y="102.19592"
       id="text67180"><tspan
         sodipodi:role="line"
         id="tspan67178"
         style="stroke-width:18.5208"
         x="94.180565"
         y="102.19592" /></text>
    <text
       xml:space="preserve"
       style="font-size:88.1528px;opacity:1;fill:#ffe6d5;fill-opacity:1;stroke:none;stroke-width:18.5208;stroke-dasharray:none;stroke-opacity:1"
       x="77.846397"
       y="134.25739"
       id="text67234"><tspan
         sodipodi:role="line"
         id="tspan67232"
         style="font-style:normal;font-variant:normal;font-weight:normal;font-stretch:normal;font-size:88.1528px;font-family:Phosphate;-inkscape-font-specification:Phosphate;fill:#ffe6d5;stroke-width:18.5208"
         x="77.846397"
         y="134.25739">R</tspan></text>
    <path
       style="opacity:1;fill:#55ff55;fill-opacity:1;stroke:none;stroke-width:18.5208;stroke-dasharray:none;stroke-opacity:1"
       id="path67285"
       d="m 102.04139,166.51248 c 0.0867,2.24594 0.0958,4.49431 0.10343,6.74165 0.0147,3.57055 0.24447,7.13544 0.33151,10.70484 0.0781,3.85545 0.52916,7.68495 1.32978,11.45391 0.86188,2.94137 1.59745,5.98271 2.91881,8.7661 0.24671,0.51967 0.54163,1.01505 0.81245,1.52258 2.00479,3.34672 4.29489,6.50054 6.63983,9.61286 1.85123,2.42405 3.98655,4.60987 5.96489,6.92827 2.27357,2.68868 4.21964,5.62443 6.06705,8.61486 1.8522,3.11823 3.34935,6.42318 4.90321,9.69457 1.16743,2.50209 2.13819,5.09477 3.04629,7.7007 0.88057,2.65084 1.56811,5.35674 2.14447,8.08814 0.73583,2.98501 1.06062,6.04152 1.41344,9.08885 0.17592,1.49339 0.31421,2.99011 0.3891,4.49186 0.12378,1.20862 0.34815,2.40273 0.53672,3.60204 0,0 3.48399,1.70415 3.48399,1.70415 v 0 c -0.20284,-1.17951 -0.3858,-2.35974 -0.52638,-3.54827 -0.0816,-1.54408 -0.33553,-3.07285 -0.54795,-4.60262 -0.41426,-3.04068 -0.66217,-6.11276 -1.37186,-9.10418 -0.59626,-2.74052 -1.27326,-5.46212 -2.13455,-8.133 -0.88933,-2.63015 -1.88769,-5.23496 -3.05708,-7.75373 -1.59368,-3.28127 -3.14072,-6.58919 -4.95646,-9.75627 -1.77715,-3.03376 -3.77566,-5.9346 -6.01011,-8.65225 -1.9337,-2.34865 -4.07511,-4.51492 -5.9571,-6.90619 -2.37255,-3.08301 -4.71847,-6.19241 -6.67423,-9.5641 -1.73486,-3.22225 -2.92569,-6.65106 -3.79574,-10.20483 -0.80523,-3.75627 -1.33716,-7.56083 -1.39237,-11.40949 -0.0862,-3.55093 -0.21793,-7.1018 -0.24935,-10.6531 0.008,-2.2122 0.0155,-4.42552 0.10343,-6.63625 0,0 -3.51522,-1.7911 -3.51522,-1.7911 z" />
    <path
       style="opacity:1;fill:#55ff55;fill-opacity:1;stroke:none;stroke-width:18.5208;stroke-dasharray:none;stroke-opacity:1"
       id="path67340"
       d="m 132.71155,237.81478 c -1.35975,-1.83337 -2.88678,-3.53491 -4.44566,-5.19911 -3.53585,-3.51081 -7.47747,-6.56462 -11.57492,-9.385 -3.13847,-1.97871 -6.29348,-3.97157 -9.63168,-5.6005 -1.04666,-0.51073 -1.95863,-0.87767 -3.03489,-1.33213 -2.54734,-1.06223 -5.169625,-1.89522 -7.859501,-2.50311 -1.364157,-0.28132 -2.747923,-0.39509 -4.095194,-0.75653 -0.804122,-0.2266 -1.643042,-0.14611 -2.467735,-0.22239 -1.365887,-0.12382 -2.733418,-0.22602 -4.101348,-0.32398 -1.002134,-0.0587 -2.006973,-0.0252 -3.010228,-0.0231 -1.109277,-0.0128 -2.217926,-0.009 -3.32712,0.002 -1.286126,0.0157 -2.572221,-2.1e-4 -3.858289,-0.0113 -1.261457,0.0133 -2.523016,0.0192 -3.784486,0.006 -0.666269,-0.0132 -1.333151,-0.004 -1.999303,-0.0217 -0.488661,0.29678 -0.272772,0.6632 0.05249,0.95845 0.149653,0.0852 0.289274,0.18712 0.438676,0.2727 12.059504,6.90775 -2.200614,-1.27587 0.691735,0.40391 1.195162,0.69411 2.393865,1.38211 3.590798,2.07316 -5.75605,-3.78844 -3.157802,-1.80491 -1.888787,-0.87214 0.917771,0.5507 1.730603,1.23314 2.504673,1.96778 0.606073,0.56303 1.18345,1.15406 1.730309,1.77435 0.602393,0.60312 1.175779,1.23381 1.760736,1.85367 0.893609,0.83071 1.803903,1.64916 2.759297,2.40847 2.316705,1.78884 4.9022,3.17938 7.429635,4.63718 1.624846,0.97179 3.314277,1.80183 5.058669,2.53258 2.527525,1.07471 5.148093,1.88716 7.750023,2.75436 2.07465,0.59173 4.13201,1.24608 6.23849,1.71605 2.3704,0.51439 4.76405,0.92308 7.15751,1.31648 2.08412,0.36975 4.15229,0.82301 6.25101,1.10467 1.52552,0.12722 3.04508,0.26255 4.56446,0.45079 1.01888,0.13409 2.04639,0.17654 3.07271,0.20541 0.65354,0.0429 0.75329,0.0735 1.29482,-0.24003 0.82353,-0.1332 1.66398,-0.13789 2.49648,-0.15146 0.55469,-0.0492 1.31256,0.20929 1.66791,-0.34197 0.0176,-0.0507 0.0352,-0.10142 0.0528,-0.15213 0,0 -3.5529,-1.81279 -3.5529,-1.81279 v 0 c 0.0174,-0.0111 0.0348,-0.0221 0.0521,-0.0332 -0.36314,0.0316 -0.95723,0.0464 -1.38435,0.0533 -0.88096,0.0309 -1.81883,-0.0273 -2.65828,0.26557 -0.35409,0.17764 -0.7462,0.089 -1.13457,0.0992 -1.00806,-0.0266 -2.01503,-0.0807 -3.01617,-0.20793 -1.50418,-0.17188 -3.01206,-0.27206 -4.5179,-0.42448 -2.07883,-0.2905 -4.13194,-0.72859 -6.20083,-1.08038 -2.39551,-0.4001 -4.79407,-0.80167 -7.16093,-1.34943 -2.08162,-0.50253 -4.13328,-1.12381 -6.189267,-1.72114 -2.610202,-0.8507 -5.224261,-1.69037 -7.743891,-2.7907 -1.746919,-0.76368 -3.435443,-1.63721 -5.079735,-2.60335 5.748117,3.3519 0.242194,0.16473 -0.862415,-0.79482 -0.960014,-0.72045 -1.821968,-1.56027 -2.738826,-2.33466 -0.580375,-0.61398 -1.126951,-1.26509 -1.751344,-1.83357 -0.551778,-0.63553 -1.107326,-1.26322 -1.746676,-1.81332 -0.741256,-0.75194 -1.527413,-1.48686 -2.453259,-2.00682 -1.583478,-1.16596 -2.76697,-2.3254 -4.835884,-3.06157 1.055878,0.61096 2.112473,1.22068 3.167636,1.83287 0.07767,0.0451 -0.157448,-0.0864 -0.235135,-0.13148 -1.20169,-0.69669 -2.401546,-1.39654 -3.602963,-2.0937 -1.049354,-0.60892 2.096571,1.22151 3.146763,1.82898 0.145841,0.0844 -0.570902,-0.34715 -0.429278,-0.26683 -0.11597,-0.0445 -0.535631,-0.39062 -0.598168,-0.0762 -0.0041,0.0204 0.04039,0.0103 0.06059,0.0154 0.646184,-0.019 1.293225,-0.008 1.939536,-0.0217 1.26724,-0.0134 2.534573,-0.006 3.801803,0.006 1.275056,-0.0114 2.550128,-0.0276 3.825259,-0.0129 1.10849,0.009 2.216353,0.01 3.324881,-0.002 1.010838,0.004 2.021795,0.0169 3.03158,0.0667 1.35654,0.0623 2.710682,0.16621 4.06133,0.30765 0.83044,0.0671 1.670037,0.0744 2.477614,0.30305 1.321157,0.28103 2.670371,0.37488 3.989334,0.67006 2.641725,0.60992 5.223635,1.42462 7.723145,2.48233 1.09742,0.47627 1.96282,0.83426 3.02794,1.36205 0.49165,0.24362 1.73597,1.23635 1.45862,0.76291 -0.30442,-0.51966 -2.08696,-1.20192 -1.55281,-0.92371 0.8119,0.42289 2.8237,1.70501 3.54897,2.15886 4.08711,2.75681 8.00626,5.75839 11.48777,9.26402 1.4986,1.59872 2.92613,3.25409 4.22834,5.01737 0,0 3.60824,1.59923 3.60824,1.59923 z" />
    <path
       style="opacity:1;fill:#55ff55;fill-opacity:1;stroke:none;stroke-width:18.5208;stroke-dasharray:none;stroke-opacity:1"
       id="path67358"
       d="m 133.09041,238.90932 c 0.38428,-0.71012 0.81354,-1.39418 1.26125,-2.06567 0.94365,-1.45777 2.06634,-2.77428 3.25047,-4.03882 1.85248,-1.82771 3.73991,-3.62066 5.72471,-5.30434 1.3019,-1.07351 2.63361,-2.12133 4.07092,-3.00975 0.41056,-0.25377 1.15173,-0.6696 1.58213,-0.91387 1.3185,-0.69366 2.67281,-1.31445 4.03086,-1.92562 1.57644,-0.6416 3.13769,-1.31825 4.70944,-1.97043 1.65894,-0.72724 3.3463,-1.38236 5.04632,-2.00601 0.89029,-0.36361 1.81087,-0.66777 2.64851,-1.14868 0.56995,-0.32723 0.66089,-0.43361 1.20071,-0.85887 1.12336,-0.90494 2.31105,-1.7269 3.50833,-2.53027 0.083,-0.0436 0.16427,-0.0906 0.24892,-0.13083 0.0666,-0.0317 0.25506,-0.10507 0.27127,-0.0905 0.026,0.0234 0.0161,0.12154 -0.0143,0.10407 -3.41125,-1.96367 -2.98842,-3.30719 -3.3826,-1.97681 -0.33102,0.84003 -0.78883,1.62559 -1.26018,2.39336 -0.74602,1.17826 -1.59122,2.28853 -2.40186,3.42216 -0.77171,1.12315 -1.45487,2.30256 -2.17018,3.46146 -0.10201,0.17804 -0.2105,0.35252 -0.30603,0.53413 -0.24924,0.47388 -0.46562,0.96445 -0.71029,1.44071 -0.40652,0.79135 -0.84916,1.5608 -1.29783,2.32867 -0.82144,1.38921 -1.70428,2.73916 -2.64934,4.04695 -0.77926,1.00182 -1.47229,2.06759 -2.2702,3.05507 -0.66261,0.82004 -0.81905,0.96259 -1.53023,1.72871 -1.20161,1.25642 -2.49983,2.43137 -4.02307,3.28795 -0.28739,0.16162 -0.58905,0.29643 -0.88358,0.44464 -1.44209,0.68694 -3.01947,0.8701 -4.59372,0.95129 -1.0914,0.0618 -2.17556,-0.0839 -3.24419,-0.29064 -0.9652,-0.23685 -1.90101,-0.58265 -2.82208,-0.95283 -0.8663,-0.41533 -1.76392,-0.75037 -2.65598,-1.10233 -0.40017,-0.19945 -0.80546,-0.29229 -1.24669,-0.30732 -0.37024,-0.007 -0.74058,-0.004 -1.11086,-0.008 -0.293,-0.004 -0.58577,0.008 -0.87883,0.006 -0.0482,-0.001 -0.0963,-0.002 -0.14448,-0.003 0,0 3.19308,2.31912 3.19308,2.31912 v 0 c 0.0454,-0.001 0.0908,-0.002 0.13623,-0.003 0.29557,-0.004 0.5911,0.008 0.88653,-0.002 0.35805,-0.008 0.71746,-0.01 1.07397,0.0292 0.39401,0.0626 0.76207,0.21637 1.13534,0.35284 0.88439,0.317 1.74142,0.69596 2.60384,1.06782 0.93779,0.35803 1.88538,0.71109 2.87453,0.89886 1.07195,0.17672 2.15766,0.27445 3.24393,0.1757 1.57872,-0.13236 3.16216,-0.39339 4.57729,-1.14801 0.75715,-0.41329 1.06091,-0.55405 1.78099,-1.05206 1.15941,-0.80185 2.22284,-1.75003 3.14471,-2.81558 1.37849,-1.52598 2.72785,-3.07877 3.91988,-4.75744 0.97623,-1.30403 1.8571,-2.66938 2.65736,-4.08916 0.80688,-1.41157 1.58617,-2.83868 2.39207,-4.25079 0.68417,-1.1659 1.36748,-2.33302 2.13019,-3.45014 0.81727,-1.13795 1.65431,-2.26203 2.43384,-3.4266 0.50892,-0.76729 0.97716,-1.56018 1.46109,-2.34285 0.69253,-1.31673 0.17965,-0.22698 -3.25394,-2.3533 -0.0369,-0.0228 -0.0574,0.0655 -0.0905,0.0934 -0.15011,0.1264 -0.33966,0.20946 -0.47259,0.35838 -1.08068,0.92518 -2.21252,1.78956 -3.37889,2.60394 -0.44885,0.30159 -0.75449,0.52155 -1.21638,0.78188 -0.82258,0.46362 -1.71161,0.78597 -2.5832,1.1418 -1.66955,0.66872 -3.34392,1.32532 -4.98857,2.05417 -1.59861,0.64186 -3.20497,1.26466 -4.79525,1.92713 -1.36697,0.60266 -2.71753,1.24523 -4.01489,1.98809 -1.94191,1.21065 -3.76658,2.58409 -5.47578,4.10833 -0.77332,0.66867 -1.53891,1.34631 -2.31701,2.00941 -1.22396,1.04307 -2.46599,2.06964 -3.58662,3.22701 -1.22011,1.2648 -2.38551,2.57516 -3.41181,4.00495 -0.48933,0.65826 -0.95976,1.32872 -1.43145,1.99901 0,0 3.41468,1.97913 3.41468,1.97913 z" />
    <path
       style="opacity:1;fill:#2aff2a;fill-opacity:1;stroke:none;stroke-width:18.5208;stroke-dasharray:none;stroke-opacity:1"
       d="m 88.540224,217.85292 c 7.736059,-0.23331 13.706456,4.6834 19.986506,8.39433 2.07394,1.22551 4.3359,2.16184 6.39568,3.39771 0.3658,0.21948 0.63943,0.57043 0.99933,0.79946 0.37704,0.23994 0.80852,0.38255 1.19919,0.59959 0.29119,0.16178 0.50152,0.45063 0.79946,0.5996 0.0596,0.0298 0.15275,-0.0471 0.19986,0 0.0471,0.0471 -0.0471,0.15275 0,0.19986 0.20512,0.20512 1.69489,0.84745 1.99865,0.99933 0.31515,0.15757 1.02895,0 1.39906,0"
       id="path68208" />
    <path
       style="opacity:1;fill:#2aff2a;fill-opacity:1;stroke:none;stroke-width:18.5208;stroke-dasharray:none;stroke-opacity:1"
       d="m 156.09462,224.04874 c -0.53298,0.33311 -1.08217,0.64157 -1.59893,0.99932 -1.01808,0.70483 -1.97988,1.49369 -2.99797,2.19852 -1.21391,0.8404 -2.61911,1.51464 -3.79744,2.39838 -0.52193,0.39145 -0.88943,0.99135 -1.39905,1.39905 -0.58984,0.47188 -1.48231,0.88272 -1.99865,1.39906 -0.10534,0.10534 -0.0945,0.29439 -0.19987,0.39973 -0.42877,0.42877 -1.13835,0.53876 -1.59892,0.99933"
       id="path68273" />
    <path
       style="opacity:1;fill:#2aff2a;fill-opacity:1;stroke:none;stroke-width:18.5208;stroke-dasharray:none;stroke-opacity:1"
       d="m 86.555518,222.50497 6.967797,-0.7742"
       id="path68277" />
    <path
       style="opacity:1;fill:#2aff2a;fill-opacity:1;stroke:none;stroke-width:18.5208;stroke-dasharray:none;stroke-opacity:1"
       d="m 91.510394,225.44693 c 2.270987,0 4.541972,0 6.812957,0"
       id="path68279" />
    <path
       style="opacity:1;fill:#2aff2a;fill-opacity:1;stroke:none;stroke-width:18.5208;stroke-dasharray:none;stroke-opacity:1"
       d="m 86.400676,222.65981 c 1.754854,0 3.509706,0 5.264557,0"
       id="path68281" />
    <path
       style="opacity:1;fill:#2aff2a;fill-opacity:1;stroke:none;stroke-width:18.5208;stroke-dasharray:none;stroke-opacity:1"
       d="m 91.820075,226.84049 c 2.477437,0 4.954876,0 7.432316,0"
       id="path68283" />
  </g>
</svg>
